<!-- <svg fill="none" height="27" viewBox="0 0 138 27" width="138"
xmlns="http://www.w3.org/2000/svg"><path d="m53.248
7.52912h3.8316c-.0554-3.37003-2.8252-5.69673-7.0355-5.69673-4.1456 0-7.1832 2.28977-7.1647
5.72443-.0093 2.78838 1.9573 4.38568 5.1519 5.15198l2.059.5171c2.0589.4985 3.2038 1.0894 3.2131
2.3636-.0093 1.3849-1.3204 2.3267-3.3516 2.3267-2.0774 0-3.5732-.9602-3.7024-2.853h-3.8686c.1015
4.0902 3.0284 6.2046 7.6172 6.2046 4.6164 0 7.3309-2.2067
7.3402-5.6691-.0093-3.1484-2.3821-4.8196-5.6691-5.5582l-1.6988-.40627c-1.6435-.37855-3.0192-.98792-2.9915-2.34517
0-1.21875 1.0802-2.11435 3.0376-2.11435 1.9112 0 3.0838.8679 3.2316
2.35441zm14.2487-.71094h-2.6683v-3.39773h-3.9332v3.39773h-1.939v2.95455h1.939v7.38637c-.0185 2.7791
1.8742 4.1548 4.7272 4.0348 1.0157-.0369 1.7358-.2401
2.1328-.3693l-.6186-2.9269c-.1939.037-.6093.1293-.9787.1293-.7848
0-1.3295-.2955-1.3295-1.385v-6.86927h2.6683zm6.6062 14.44962c2.0959 0 3.4531-.9141
4.1456-2.2344h.1108v1.9666h3.7301v-9.5653c0-3.3793-2.8622-4.80118-6.0199-4.80118-3.3977 0-5.6321
1.625-6.1768 4.21028l3.6378.2954c.2677-.9418 1.1079-1.63423 2.5205-1.63423 1.3388 0 2.1052.67403
2.1052 1.83733v.0554c0 .9141-.9695 1.0341-3.4347 1.2742-2.8068.2585-5.3274 1.2003-5.3274 4.3672 0
2.8068 2.0035 4.2287 4.7088 4.2287zm1.1264-2.7145c-1.2095 0-2.0774-.5632-2.0774-1.6435
0-1.108.9141-1.6527 2.299-1.8466.8587-.12 2.2621-.3231 2.733-.6371v1.505c0 1.4865-1.228
2.6222-2.9546 2.6222zm9.9116 2.4467h3.9332v-8.0234c0-1.7451 1.2742-2.9454 3.01-2.9454.5447 0
1.2926.0924 1.6619.2124v-3.49005c-.3508-.0831-.8402-.13849-1.2372-.13849-1.5881
0-2.8899.92329-3.407
2.67755h-.1477v-2.47443h-3.8132zm18.8931-14.18182h-2.668v-3.39773h-3.9337v3.39773h-1.939v2.95455h1.939v7.38637c-.0185
2.7791 1.8743 4.1548 4.7277 4.0348 1.015-.0369 1.735-.2401
2.132-.3693l-.618-2.9269c-.194.037-.61.1293-.979.1293-.785
0-1.329-.2955-1.329-1.385v-6.86927h2.668zm11.656 8.14342c.01 1.902-1.292 2.8992-2.705 2.8992-1.486
0-2.447-1.0433-2.456-2.7145v-8.32812h-3.933v9.02982c.009 3.3146 1.948 5.3367 4.801 5.3367 2.133 0
3.666-1.0988 4.303-2.7607h.147v2.576h3.777v-14.18182h-3.934zm7.08 11.3566h3.933v-7.5895h.12c.545
1.1818 1.736 2.5021 4.026 2.5021 3.231 0 5.752-2.5575 5.752-7.3032
0-4.87504-2.632-7.29408-5.743-7.29408-2.373 0-3.509 1.41264-4.035
2.56676h-.175v-2.3821h-3.878zm3.85-12.4091c0-2.5298 1.071-4.14561 2.982-4.14561 1.948 0 2.982
1.68961 2.982 4.14561 0 2.4744-1.052 4.1918-2.982 4.1918-1.893 0-2.982-1.662-2.982-4.1918z"
fill="#fff"/><g fill="#4a6cf7"><path d="m0 0c13.8071 0 25 11.1929 25 25h-23c-1.10457
0-2-.8954-2-2z"/><path d="m6 25c0-13.8071 11.1929-25 25-25v23c0 1.1046-.8954 2-2 2z"
opacity=".5"/></g></svg>
-->

<svg xmlns:dc="http://purl.org/dc/elements/1.1/" xmlns:cc="http://creativecommons.org/ns#"
  xmlns:rdf="http://www.w3.org/1999/02/22-rdf-syntax-ns#" xmlns:svg="http://www.w3.org/2000/svg"
  xmlns="http://www.w3.org/2000/svg" xmlns:xlink="http://www.w3.org/1999/xlink" id="svg221677"
  viewBox="0 0 1024 768" height="768px" width="1024px" version="1.1">
  <metadata id="metadata221683">
    <rdf:rdf>
      <cc:work rdf:about="">
        <dc:format>image/svg+xml</dc:format>
        <dc:type rdf:resource="http://purl.org/dc/dcmitype/StillImage"></dc:type>
      </cc:work>
    </rdf:rdf>
  </metadata>
  <defs id="defs221681"></defs>
  <linearGradient spreadMethod="pad" y2="30%" x2="-10%" y1="120%" x1="30%"
    id="3d_gradient2-logo-e4617acd-a791-4833-a34f-b636f27e527c">
    <stop id="stop221658" stop-opacity="1" stop-color="#ffffff" offset="0%"></stop>
    <stop id="stop221660" stop-opacity="1" stop-color="#000000" offset="100%"></stop>
  </linearGradient>
  <linearGradient gradientTransform="rotate(-30)" spreadMethod="pad" y2="30%" x2="-10%" y1="120%"
    x1="30%" id="3d_gradient3-logo-e4617acd-a791-4833-a34f-b636f27e527c">
    <stop id="stop221663" stop-opacity="1" stop-color="#ffffff" offset="0%"></stop>
    <stop id="stop221665" stop-opacity="1" stop-color="#cccccc" offset="50%"></stop>
    <stop id="stop221667" stop-opacity="1" stop-color="#000000" offset="100%"></stop>
  </linearGradient>
  <g id="logo-group">
    <image xlink:href="" id="container" x="272" y="144" width="480" height="480"
      style="display: none;" transform="translate(0 0)"></image>
    <g id="logo-center" transform="translate(237.29146874999998 0)">
      <image xlink:href="" id="icon_container" style="display: none;" x="0" y="0"></image>
      <g id="slogan"
        style="font-style:normal;font-weight:normal;font-size:32px;line-height:1;font-family:'Brandmark Sans 2 Color';font-variant-ligatures:none;text-align:center;text-anchor:middle"
        transform="translate(0 0)"></g>
      <g id="title"
        style="font-style:normal;font-weight:normal;font-size:72px;line-height:1;font-family:'Brandmark Sans 2 Color';font-variant-ligatures:normal;text-align:center;text-anchor:middle"
        transform="translate(0 0)">
        <g id="path221686" aria-label="D"
          transform="translate(0 327.565) translate(50 12.271999999999998) scale(1.75) translate(-397.01656 50.4)">
          <path class="c1"
            d="M97.47998,74.79785c15.12109,0,25.27441,10.15283,25.27441,25.20215 c0,14.83301-10.58496,25.20215-25.70703,25.20215H77.24561v-50.4043h20.30566H97.47998z M97.83936,115.8418 c7.9209,0,13.46582-6.48047,13.46582-15.76953c0-9.36133-5.76074-15.91357-14.04102-15.91357H88.479v31.61084h9.28906 L97.83936,115.8418z"
            transform="translate(319.77095 -125.19785)" stroke-width="0" stroke-linejoin="miter"
            stroke-miterlimit="2" fill="#ffffff" stroke="#ffffff"></path>
        </g>
        <g id="path221688" aria-label="E"
          transform="translate(0 327.565) translate(153.76953999999995 12.523999999999994) scale(1.75) translate(-450.31344 50.256)">
          <path class="c1"
            d="M118.82959,115.9856v9.2168H81.17041V74.79761h36.86719v9.2168H92.40381v31.89893L118.82959,115.9856z M99.46045,104.60864l1.2959-9.21729h14.83301v9.21729H99.46045z"
            transform="translate(369.14303 -125.05361)" stroke-width="0" stroke-linejoin="miter"
            stroke-miterlimit="2" fill="#ffffff" stroke="#ffffff"></path>
        </g>
        <g id="path221690" aria-label="T"
          transform="translate(0 327.565) translate(237.56018749999987 12.145999999999994) scale(1.75) translate(-492.19381 50.472)">
          <path class="c1"
            d="M120.19775,74.79785v9.50488H79.80225v-9.50488H120.19775z M94.2749,89.99121 c5.25684-4.17627,11.2334,0,11.2334,0v35.21094H94.20361V89.99121H94.2749z"
            transform="translate(412.39156 -125.26985)" stroke-width="0" stroke-linejoin="miter"
            stroke-miterlimit="2" fill="#ffffff" stroke="#ffffff"></path>
        </g>
        <g id="path221692" aria-label="E"
          transform="translate(0 327.565) translate(329.3164149999999 12.523999999999994) scale(1.75) translate(-538.62594 50.256)">
          <path class="c1"
            d="M118.82959,115.9856v9.2168H81.17041V74.79761h36.86719v9.2168H92.40381v31.89893L118.82959,115.9856z M99.46045,104.60864l1.2959-9.21729h14.83301v9.21729H99.46045z"
            transform="translate(457.45553 -125.05361)" stroke-width="0" stroke-linejoin="miter"
            stroke-miterlimit="2" fill="#ffffff" stroke="#ffffff"></path>
        </g>
        <g id="path221694" aria-label="^X"
          transform="translate(0 327.565) translate(415.12306250000006 12.271999999999998) scale(1.75) translate(-581.65831 50.4)">
          <path class="c1"
            d="M103.13232,95.31934c1.51172,2.16064,1.58398,4.96875,0.21582,7.20068l-3.60059,5.83252l-10.72852,16.84961 H75.91357l16.99414-25.77832l-15.8418-24.62598h13.10547l9.64844,15.48145l3.45605,4.96826L103.13232,95.31934z"
            transform="translate(505.74474 -125.19785)" stroke-width="0" stroke-linejoin="miter"
            stroke-miterlimit="2" fill="#ffffff" stroke="#ffffff"></path>
          <polygon class="c3"
            points="109.97314,94.31152 103.20459,84.87891 109.54053,74.79785 122.71826,74.79785 "
            transform="translate(505.74474 -125.19785)" stroke-width="0" stroke-linejoin="miter"
            stroke-miterlimit="2" fill="#b7a7a1" stroke="#b7a7a1"></polygon>
          <polygon class="c3"
            points="124.08643,125.20215 110.62061,125.20215 103.27588,113.68164 110.04443,103.38428 "
            transform="translate(505.74474 -125.19785)" stroke-width="0" stroke-linejoin="miter"
            stroke-miterlimit="2" fill="#b7a7a1" stroke="#b7a7a1"></polygon>
        </g>
      </g>
      <image xlink:href="" id="icon" style="display: none;" x="0" y="0"></image>
    </g>
  </g>
</svg>